<?xml version="1.0" standalone="no"?>
<!DOCTYPE svg PUBLIC "-//W3C//DTD SVG 20010904//EN"
 "http://www.w3.org/TR/2001/REC-SVG-20010904/DTD/svg10.dtd">
<svg version="1.0" xmlns="http://www.w3.org/2000/svg"
 width="512.000000pt" height="512.000000pt" viewBox="0 0 512.000000 512.000000"
 preserveAspectRatio="xMidYMid meet">
<metadata>
Created by potrace 1.14, written by Peter Selinger 2001-2017
</metadata>
<g transform="translate(0.000000,512.000000) scale(0.100000,-0.100000)"
fill="#000000" stroke="none">
<path d="M1080 4082 c0 -135 3 -181 13 -184 6 -3 90 -20 185 -39 l172 -33 0
-1272 0 -1272 -167 -31 c-93 -18 -176 -34 -185 -37 -16 -5 -18 -22 -18 -185
l0 -179 768 0 c459 0 803 4 857 10 352 41 611 164 856 409 128 128 209 242
288 406 127 260 181 522 181 877 0 348 -53 609 -174 864 -208 435 -553 710
-1021 815 -98 22 -114 23 -927 26 l-828 4 0 -179z m1496 -282 c219 -19 374
-90 524 -241 222 -221 340 -568 340 -995 0 -510 -159 -897 -455 -1110 -173
-124 -316 -154 -727 -154 l-218 0 0 1248 c0 687 3 1252 7 1255 10 11 404 8
529 -3z"/>
</g>
</svg>
